<svg width="32" height="32" viewBox="0 0 32 32" fill="none" xmlns="http://www.w3.org/2000/svg">
<path d="M21.3363 19.1549C21.3363 18.7283 21.1535 18.4945 20.8778 18.3276C20.597 18.1668 20.2584 18.1448 19.7949 18.1448H17.74V21.9015H18.64V20.5337H19.6031C19.9197 20.5337 20.1185 20.5656 20.2374 20.7005C20.3982 20.8724 20.3783 21.2051 20.3783 21.4349V21.8985H21.2524V21.1591C21.2524 20.8264 21.2324 20.6596 21.1125 20.4717C21.0286 20.3678 20.8728 20.2329 20.67 20.16L20.6949 20.149C20.9397 20.0561 21.3363 19.7534 21.3363 19.1549ZM20.1755 19.6954L20.1385 19.6904C20.0186 19.7634 19.8788 19.7694 19.696 19.7694H18.6201V18.9311H19.7179C19.8788 18.9311 20.0346 18.9311 20.1605 18.999C20.2894 19.062 20.3633 19.1909 20.3573 19.3377C20.3573 19.4986 20.2944 19.6225 20.1805 19.6964L20.1755 19.6954ZM27.0385 21.0962H25.3112V21.8985H27.0495C27.9486 21.8985 28.4481 21.5278 28.4481 20.7225C28.4481 20.3468 28.3601 20.123 28.1993 19.9472C27.9965 19.7704 27.6728 19.6864 27.2273 19.6714L26.7268 19.6505C26.587 19.6505 26.4881 19.6505 26.3842 19.6095C26.2643 19.5685 26.1854 19.4686 26.1854 19.3288C26.1854 19.2089 26.2063 19.1099 26.3052 19.053C26.4141 18.9901 26.54 18.9641 26.6699 18.9691H28.3032V18.1688H26.508C25.572 18.1688 25.2333 18.7513 25.2333 19.2878C25.2333 20.4897 26.2643 20.4268 27.1074 20.4478C27.2423 20.4478 27.3462 20.4677 27.4031 20.5247C27.4661 20.5676 27.512 20.6656 27.512 20.7645C27.512 20.8684 27.4651 20.9673 27.4081 21.0043C27.3312 21.0762 27.2113 21.0972 27.0395 21.0972L27.0385 21.0962ZM0.00299695 0V13.452L1.0809 10.9492H3.41153L3.71222 11.5687V10.9492H6.43345L7.03185 12.307L7.61525 10.9602H16.2784C16.669 10.9602 17.0217 11.0372 17.2824 11.2769V10.9692H19.665V11.2769C20.0696 11.0481 20.5751 10.9692 21.1525 10.9692H24.622L24.9456 11.5887V10.9692H27.5L27.8367 11.5887V10.9642H30.3142V16.2265H27.8007L27.3222 15.4242V16.2045H24.1844L23.8457 15.3663H23.0655L22.7069 16.1826H21.0935C20.4532 16.1826 19.9747 16.0477 19.652 15.8658V16.1826H15.8009V15.0076C15.8009 14.8468 15.765 14.8468 15.6661 14.8248H15.5252V16.2035H8.07978V15.5691L7.79907 16.2035H6.24864L5.97792 15.5691V16.1876H2.97597L2.63732 15.3553H1.86211L1.52545 16.1876H0V31.9705H31.6808V22.4999C31.3221 22.6808 30.8646 22.7387 30.3851 22.7387H28.0914V22.4C27.8107 22.6188 27.3322 22.7387 26.8737 22.7387H19.5941V21.5428C19.5941 21.3819 19.5671 21.3819 19.4332 21.3819H19.3343V22.7447H16.9358V21.325C16.5402 21.5078 16.0766 21.5218 15.697 21.5078H15.4163V22.7257H12.5143L11.791 21.9025L11.0308 22.7047H6.31657V17.4694H11.1247L11.816 18.2717L12.5552 17.4694H15.765C16.1396 17.4694 16.748 17.5124 17.0187 17.7721V17.4494H19.9167C20.1875 17.4494 20.7759 17.5124 21.1235 17.7502V17.4334H25.4681V17.7502C25.6869 17.5314 26.1504 17.4334 26.54 17.4334H29.0574V17.7502C29.3182 17.5533 29.6768 17.4334 30.1763 17.4334H31.7427V0.000999109L0.00299695 0ZM28.1823 19.9192C28.1873 19.9302 28.1873 19.9402 28.1933 19.9462C28.2093 19.9552 28.2293 19.9552 28.2403 19.9712L28.1833 19.9242L28.1823 19.9192ZM31.7417 17.4275H31.8306V18.1668H31.7417V17.4275ZM31.7877 20.0231V20.0121C31.7517 19.9812 31.7307 19.9512 31.6888 19.9192C31.492 19.7164 31.1683 19.6325 30.6738 19.6225L30.1903 19.6075C30.0344 19.6075 29.9355 19.5965 29.8316 19.5665C29.7118 19.5236 29.6329 19.4257 29.6329 19.2858C29.6329 19.1659 29.6738 19.071 29.7527 19.014C29.8516 18.9571 29.9495 18.9471 30.1114 18.9471H31.7407L31.7417 18.1668H30.0344C29.1124 18.1668 28.7547 18.7493 28.7547 19.2858C28.7547 20.4817 29.7947 20.4248 30.6328 20.4458C30.7737 20.4458 30.8726 20.4607 30.9295 20.5227C30.9925 20.5656 31.0334 20.6636 31.0334 20.7625C31.0334 20.8554 30.9865 20.9453 30.9135 21.0023C30.8506 21.0742 30.7307 21.0952 30.5549 21.0952H28.8367V21.9015H30.5499C31.1103 21.9015 31.5279 21.7456 31.7517 21.4229H31.7877C31.9075 21.24 31.9705 21.0222 31.9705 20.7265C31.9705 20.4028 31.9075 20.206 31.7877 20.0231ZM24.7748 18.9261V18.1508H21.7978V21.9234H24.7748V21.1431H22.6819V20.3888H24.7228V19.6085H22.6819V18.9321L24.7748 18.9261ZM18.0007 11.7026H18.9108V15.4552H18.0007V11.7026ZM17.4852 12.7127L17.4742 12.7236C17.4742 12.301 17.3024 12.0572 17.0217 11.8914C16.735 11.7245 16.3983 11.7086 15.9458 11.7086H13.8959V15.4652H14.7949V14.0864H15.753C16.0697 14.0864 16.2734 14.1274 16.4033 14.2473C16.5661 14.4301 16.5442 14.7518 16.5442 14.9756V15.4502H17.4443V14.7159C17.4443 14.3832 17.4233 14.2163 17.2974 14.0235C17.1785 13.8836 17.0267 13.7747 16.8608 13.7118C17.0896 13.6188 17.4912 13.3111 17.4912 12.7127H17.4852ZM16.3464 13.2392H16.3304C16.2055 13.3111 16.0697 13.3161 15.8878 13.3161H14.79V12.4839H15.8878C16.0487 12.4839 16.2045 12.4889 16.3244 12.5518C16.4443 12.6038 16.5272 12.7236 16.5272 12.8845C16.5272 13.0454 16.4643 13.1762 16.3464 13.2392ZM21.2104 12.4839H22.0486V11.6876H21.1894C20.5751 11.6876 20.1225 11.8284 19.8318 12.1262C19.4522 12.5258 19.3523 13.0464 19.3523 13.6089C19.3523 14.2912 19.5131 14.7169 19.8318 15.0346C20.1385 15.3513 20.69 15.4512 21.1215 15.4512H22.1635L22.5021 14.613H24.3532L24.7019 15.4512H26.512V12.6407L28.2093 15.4512H29.479V11.7036H28.5629V14.3212L26.9925 11.7086H25.6339V15.1845L24.1245 11.6466H22.7868L21.5331 14.608H21.1325C20.8997 14.608 20.649 14.567 20.5091 14.4251C20.3423 14.2283 20.2644 13.9466 20.2644 13.5459C20.2644 13.1663 20.3683 12.8635 20.5191 12.7077C20.6959 12.5248 20.8838 12.4839 21.2064 12.4839H21.2104ZM23.4322 12.344L24.0465 13.8317V13.8367H22.8078L23.4322 12.344ZM3.17177 14.612L3.51043 15.4502H5.33158V12.5158L6.62726 15.4502H7.40247L8.69715 12.5158L8.71813 15.4502H9.6382V11.7086H8.15071L7.0788 14.2423L5.90899 11.7036H4.45747V15.2524L2.93801 11.7036H1.61136L0.0199797 15.4512H0.976007L1.31966 14.619H3.17277L3.17177 14.612ZM2.25571 12.344L2.87008 13.8317L2.86509 13.8367H1.64732L2.25571 12.344ZM15.7939 18.1448H12.9438L11.809 19.3727L10.7111 18.1448H7.12675V21.9015H10.6592L11.798 20.6586L12.8969 21.8975H14.6281V20.6476H15.747C16.5432 20.6476 17.3024 20.4288 17.3024 19.3887L17.2974 19.3837C17.2974 18.3436 16.5022 18.1448 15.7939 18.1448ZM10.2216 21.1172H8.02084V20.3728H9.97585V19.6085H8.02084V18.9321H10.2576L11.2366 20.0241L10.2166 21.1222L10.2216 21.1172ZM13.738 21.5598L12.3644 20.0291L13.738 18.5574V21.5598ZM15.8039 19.8833H14.6281V18.9251H15.8039C16.1266 18.9251 16.3663 19.056 16.3663 19.3837C16.3663 19.7114 16.1695 19.8833 15.8039 19.8833ZM13.2815 12.4839V11.7036H10.2995V15.4562H13.2815V14.6809H11.1886V13.9306H13.2235V13.1603H11.1886V12.4839H13.2815Z" fill="white"/>
</svg>
