<svg width="22" height="28" viewBox="0 0 22 28" fill="none" xmlns="http://www.w3.org/2000/svg">
<path d="M11 12.4435C12.1867 12.4435 13.3467 12.0786 14.3334 11.395C15.3201 10.7113 16.0891 9.73961 16.5433 8.60273C16.9974 7.46585 17.1162 6.21486 16.8847 5.00796C16.6532 3.80106 16.0818 2.69244 15.2426 1.82231C14.4035 0.952186 13.3344 0.35962 12.1705 0.119552C11.0067 -0.120516 9.80025 0.00269577 8.7039 0.473606C7.60754 0.944517 6.67047 1.74198 6.01118 2.76514C5.35189 3.7883 5 4.99122 5 6.22177C5 7.87188 5.63214 9.45441 6.75736 10.6212C7.88258 11.788 9.4087 12.4435 11 12.4435ZM11 3.11088C11.5933 3.11088 12.1734 3.29333 12.6667 3.63516C13.1601 3.97699 13.5446 4.46284 13.7716 5.03128C13.9987 5.59972 14.0581 6.22522 13.9424 6.82867C13.8266 7.43212 13.5409 7.98643 13.1213 8.42149C12.7018 8.85656 12.1672 9.15284 11.5853 9.27287C11.0033 9.39291 10.4001 9.3313 9.85195 9.09585C9.30377 8.86039 8.83523 8.46166 8.50559 7.95008C8.17595 7.4385 8 6.83704 8 6.22177C8 5.39671 8.31607 4.60544 8.87868 4.02204C9.44129 3.43864 10.2043 3.11088 11 3.11088Z" fill="#231F20"/>
<path d="M11 15.3151C8.08262 15.3151 5.28473 16.4622 3.22183 18.5041C1.15893 20.5461 0 23.3155 0 26.2032C0 26.6157 0.165561 27.0113 0.460261 27.303C0.754961 27.5947 1.15466 27.7586 1.57143 27.7586C1.9882 27.7586 2.3879 27.5947 2.6826 27.303C2.9773 27.0113 3.14286 26.6157 3.14286 26.2032C3.14286 24.1405 3.97066 22.1624 5.44416 20.7039C6.91766 19.2454 8.91616 18.426 11 18.426C13.0838 18.426 15.0823 19.2454 16.5558 20.7039C18.0293 22.1624 18.8571 24.1405 18.8571 26.2032C18.8571 26.6157 19.0227 27.0113 19.3174 27.303C19.6121 27.5947 20.0118 27.7586 20.4286 27.7586C20.8453 27.7586 21.245 27.5947 21.5397 27.303C21.8344 27.0113 22 26.6157 22 26.2032C22 23.3155 20.8411 20.5461 18.7782 18.5041C16.7153 16.4622 13.9174 15.3151 11 15.3151Z" fill="#231F20"/>
</svg>
