<svg width="34" height="33" viewBox="0 0 34 33" fill="none" xmlns="http://www.w3.org/2000/svg">
<path d="M34 16.6022C34 7.43053 26.3851 0 17 0C7.60856 0 0 7.43053 0 16.6022C0 24.8867 6.21456 31.7559 14.3438 33V21.4023H10.0268V16.6032H14.3438V12.9435C14.3438 8.78361 16.8778 6.48627 20.7623 6.48627C22.6228 6.48627 24.5703 6.81002 24.5703 6.81002V10.8952H22.423C20.315 10.8952 19.6562 12.1767 19.6562 13.4893V16.6022H24.3706L23.613 21.4013H19.6562V32.999C27.7791 31.7548 34 24.8857 34 16.6012V16.6022Z" fill="white"/>
</svg>
