<svg width="34" height="34" viewBox="0 0 34 34" fill="none" xmlns="http://www.w3.org/2000/svg">
<path d="M17 0C12.3786 0 11.8027 0.0223153 9.99406 0.0988249C8.17802 0.188086 6.94962 0.469684 5.86573 0.890486C4.74784 1.32829 3.79572 1.90955 2.85529 2.85529C1.90849 3.79572 1.32192 4.74784 0.890486 5.86573C0.469684 6.94962 0.188086 8.17802 0.0988249 9.99406C0.0170021 11.8037 0 12.3786 0 17C0 21.6214 0.0223153 22.1973 0.0988249 24.0059C0.188086 25.8167 0.469684 27.0504 0.890486 28.1343C1.32829 29.2522 1.90955 30.2043 2.85529 31.1447C3.79572 32.0915 4.74784 32.6781 5.86573 33.1095C6.94962 33.525 8.18334 33.8119 9.99406 33.9012C11.8037 33.983 12.3786 34 17 34C21.6214 34 22.1973 33.9777 24.0059 33.9012C25.8167 33.8119 27.0504 33.5239 28.1343 33.1095C29.2522 32.6717 30.2043 32.0904 31.1447 31.1447C32.0915 30.2043 32.6781 29.2575 33.1095 28.1343C33.525 27.0504 33.8119 25.8167 33.9012 24.0059C33.983 22.1963 34 21.6214 34 17C34 12.3786 33.9777 11.8027 33.9012 9.99406C33.8119 8.18334 33.5239 6.94324 33.1095 5.86573C32.6717 4.74784 32.0905 3.79572 31.1447 2.85529C30.2043 1.90849 29.2575 1.32192 28.1343 0.890486C27.0504 0.469684 25.8167 0.188086 24.0059 0.0988249C22.1963 0.0170021 21.6214 0 17 0ZM17 3.06038C21.5385 3.06038 22.0804 3.0827 23.8742 3.15921C25.5287 3.23678 26.4298 3.51306 27.0281 3.74684C27.8261 4.05607 28.384 4.42162 28.9876 5.01881C29.5794 5.6107 29.945 6.17496 30.2542 6.973C30.488 7.57126 30.7643 8.47237 30.8419 10.1269C30.9184 11.9206 30.9407 12.4636 30.9407 17.0011C30.9407 21.5385 30.9184 22.0815 30.8355 23.8752C30.7462 25.5298 30.4699 26.4309 30.2372 27.0291C29.9152 27.8272 29.5561 28.385 28.9631 28.9886C28.3649 29.5805 27.7953 29.9461 27.0036 30.2553C26.4128 30.4891 25.4989 30.7653 23.838 30.8429C22.0348 30.9194 21.5034 30.9417 16.9532 30.9417C12.4031 30.9417 11.8728 30.9194 10.0674 30.8365C8.41286 30.7473 7.50006 30.471 6.9018 30.2383C6.0942 29.9163 5.54057 29.5571 4.94762 28.9642C4.34936 28.3659 3.96893 27.7963 3.67565 27.0047C3.43762 26.4139 3.16558 25.5 3.07738 23.8391C3.01681 22.0571 2.98812 21.5045 2.98812 16.9756C2.98812 12.4487 3.01681 11.8951 3.07738 10.0908C3.16558 8.42987 3.43762 7.51813 3.67565 6.92518C3.96893 6.11651 4.35042 5.56395 4.94762 4.96568C5.53951 4.3738 6.0942 3.99125 6.9018 3.69159C7.50006 3.45887 8.39055 3.18259 10.0514 3.0997C11.8547 3.03488 12.386 3.0115 16.9299 3.0115L17 3.06038ZM17 8.27472C12.1746 8.27472 8.2726 12.182 8.2726 17.0021C8.2726 21.8275 12.1799 25.7295 17 25.7295C21.8254 25.7295 25.7274 21.8222 25.7274 17.0021C25.7274 12.1767 21.8201 8.27472 17 8.27472ZM17 22.6691C13.8674 22.6691 11.333 20.1348 11.333 17.0021C11.333 13.8695 13.8674 11.3351 17 11.3351C20.1326 11.3351 22.667 13.8695 22.667 17.0021C22.667 20.1348 20.1326 22.6691 17 22.6691ZM28.1194 7.92618C28.1194 9.05576 27.2002 9.9675 26.0759 9.9675C24.9464 9.9675 24.0346 9.05469 24.0346 7.92618C24.0346 6.80298 24.9527 5.88911 26.0759 5.88911C27.1992 5.88911 28.1194 6.80298 28.1194 7.92618Z" fill="white"/>
</svg>
