<svg width="34" height="27" viewBox="0 0 34 27" fill="none" xmlns="http://www.w3.org/2000/svg">
<path d="M33.9352 3.21696C32.6846 3.7526 31.3459 4.12111 29.9349 4.28824C31.3746 3.44429 32.4753 2.10934 33.0002 0.519031C31.6497 1.2872 30.1559 1.8436 28.5674 2.15813C27.3009 0.833564 25.4904 0 23.4813 0C19.6297 0 16.5081 3.04879 16.5081 6.80657C16.5081 7.3474 16.575 7.86644 16.6908 8.35848C10.897 8.09377 5.76088 5.37405 2.32581 1.2654C1.72231 2.26609 1.37912 3.42872 1.37912 4.69412C1.37912 7.06194 2.61269 9.13806 4.47737 10.3588C3.33731 10.3266 2.26419 10.0183 1.32387 9.51073V9.59273C1.32387 12.8948 3.72513 15.6478 6.91262 16.2747C6.33144 16.4253 5.71094 16.5125 5.08087 16.5125C4.63356 16.5125 4.20644 16.4699 3.78038 16.3931C4.67712 19.0962 7.24412 21.0644 10.3041 21.1235C7.92519 22.9453 4.90981 24.0311 1.66069 24.0311C1.10712 24.0311 0.554625 24.0052 0 23.9398C3.09931 25.8706 6.7575 27 10.7089 27C23.5301 27 30.5363 16.6246 30.5363 7.6391C30.5363 7.3526 30.5362 7.0609 30.5139 6.76817C31.8814 5.81626 33.065 4.61003 34 3.24291L33.9352 3.21696Z" fill="white"/>
</svg>
