<svg width="33" height="21" viewBox="0 0 33 21" fill="none" xmlns="http://www.w3.org/2000/svg">
<path d="M15.2019 19.1122C15.2789 19.1759 15.3628 19.2446 15.4407 19.3073C13.8751 20.3655 11.9918 20.9759 9.97261 20.9759C4.51348 20.9759 0.0904236 16.5076 0.0904236 10.9852C0.0904236 5.46774 4.51348 0.994385 9.96661 0.994385C11.9918 0.994385 13.8751 1.60485 15.4367 2.65699C15.3578 2.72571 15.2799 2.79444 15.2169 2.86317C12.882 4.90478 11.5392 7.86917 11.5392 10.9852C11.5392 14.1011 12.877 17.0655 15.2029 19.1122H15.2019ZM22.1857 0.994385C20.1555 0.994385 18.2772 1.60485 16.7156 2.65699C16.7945 2.72571 16.8724 2.79444 16.9354 2.86317C19.2703 4.90478 20.6131 7.86917 20.6131 10.9852C20.6131 14.0971 19.2753 17.0605 16.9494 19.1122C16.8724 19.1759 16.7885 19.2446 16.7106 19.3073C18.2762 20.3655 20.1545 20.9759 22.1787 20.9759C27.6378 20.9759 32.0609 16.5076 32.0609 10.9852C32.0609 5.46774 27.6388 0.994385 22.1857 0.994385ZM16.0762 3.13707C15.9453 3.23713 15.8254 3.33618 15.7015 3.44735C13.6194 5.27975 12.3035 7.97529 12.3035 10.9862C12.3035 13.997 13.6194 16.6916 15.7015 18.525C15.8214 18.6351 15.9503 18.7403 16.0762 18.8403C16.207 18.7403 16.3269 18.6351 16.4508 18.525C18.533 16.6926 19.8488 13.997 19.8488 10.9862C19.8488 7.97529 18.533 5.28076 16.4508 3.44735C16.3309 3.33719 16.207 3.23713 16.0762 3.13707Z" fill="white"/>
</svg>
