<svg width="50" height="16" viewBox="0 0 50 16" fill="none" xmlns="http://www.w3.org/2000/svg">
<path d="M36.3563 1.10458C35.5524 0.811367 34.2911 0.492188 32.73 0.492188C28.7384 0.492188 25.9176 2.4653 25.9004 5.28904C25.8676 7.36447 27.9001 8.53429 29.4362 9.23373C31.0144 9.94998 31.542 10.3959 31.5342 11.0312C31.5264 12.0101 30.2729 12.4469 29.1193 12.4469C27.5161 12.4469 26.6466 12.2331 25.3056 11.6833L24.8076 11.4527L24.2394 14.7148C25.2151 15.1042 26.9635 15.4463 28.768 15.4783C33.0204 15.4783 35.7928 13.522 35.824 10.5059C35.8568 8.85194 34.7688 7.5966 32.4506 6.56118C31.0519 5.8938 30.1761 5.4387 30.1761 4.75453C30.1761 4.14977 30.9239 3.51447 32.4849 3.51447C33.8259 3.49003 34.7703 3.77714 35.5087 4.06272L35.8912 4.22918L36.4516 1.08779L36.3563 1.10458ZM46.7327 0.762497H43.6106C42.6349 0.762497 41.9106 1.01754 41.4797 1.96438L35.479 15.2707H39.7236L40.579 13.0914L45.757 13.099C45.8866 13.6076 46.2519 15.2691 46.2519 15.2691H50L46.7327 0.762497ZM20.1526 0.643378H24.1941L21.6652 15.1576H17.6237L20.1526 0.635742V0.643378ZM9.87612 8.63661L10.2898 10.6571L14.2486 0.762497H18.5337L12.1584 15.2462H7.89201L4.39524 2.98148C4.32187 2.76768 4.23289 2.6226 4.01278 2.49737C2.83418 1.89261 1.50885 1.39933 0.0461349 1.05724L0.0945278 0.753335H6.61507C7.49394 0.785406 8.20891 1.05724 8.45243 1.97966L9.87612 8.64424V8.63661ZM41.7311 10.1241L43.3499 6.06026C43.3249 6.09844 43.6824 5.2249 43.8853 4.67512L44.1616 5.92282L45.0983 10.1149H41.7311V10.1241Z" fill="white"/>
</svg>
