<svg width="34" height="23" viewBox="0 0 34 23" fill="none" xmlns="http://www.w3.org/2000/svg">
<path d="M33.2902 3.54751C32.8864 2.15959 31.7683 1.07107 30.3281 0.686276C27.6764 3.28085e-05 17.0162 3.29744e-05 17.0162 3.29744e-05C17.0162 3.29744e-05 6.37628 -0.0164288 3.6969 0.686276C2.26421 1.0721 1.1408 2.15959 0.741182 3.54751C0.238465 6.17828 -0.0112989 8.84095 0.000392174 11.516C-0.00492196 14.1735 0.243779 16.832 0.741182 19.4464C1.1408 20.8343 2.26421 21.9228 3.6969 22.3138C6.34865 23 17.0162 23 17.0162 23C17.0162 23 27.6498 23 30.3281 22.3138C31.7683 21.9228 32.8864 20.8353 33.2902 19.4464C33.7781 16.832 34.0161 14.1735 33.9991 11.516C34.0161 8.84095 33.7834 6.17828 33.2902 3.54751ZM13.6109 16.4411V6.56925L22.4845 11.516L13.6109 16.4411Z" fill="white"/>
</svg>
